# xmcd
#
# Track frame offsets:
#	182
#	17002
#	32585
#	49072
#	71772
#	85855
#	99720
#	113855
#	126432
#	141185
#	158987
#	179217
#	194082
#
# Disc length: 2786 seconds
#
# Revision: 0
# Processed by: cddbd v1.5.2PL0 Copyright (c) Steve Scherf et al.
# Submitted via: audiograbber 1.82.01
#
DISCID=c20ae00d
DTITLE=Alison Krauss and Union Station - Live - Disc 1
DYEAR=2002
DGENRE=Bluegrass
TTITLE0=Let Me Touch You For Awhile
TTITLE1=Choctaw Hayride
TTITLE2=The Lucky One
TTITLE3=Baby, Now That I've Found You
TTITLE4=Bright Sunny South
TTITLE5=Every Time You Say Goodbye
TTITLE6=Tiny Broken Heart
TTITLE7=Cluck Old Hen
TTITLE8=Stay
TTITLE9=Broadway
TTITLE10=Ghost In This House
TTITLE11=Forget About It
TTITLE12=Faraway Land
EXTD=YEAR: 2002
EXTT0=
EXTT1=
EXTT2=
EXTT3=
EXTT4=
EXTT5=
EXTT6=
EXTT7=
EXTT8=
EXTT9=
EXTT10=
EXTT11=
EXTT12=
PLAYORDER=
